<?xml version="1.0" standalone="no"?>
<!DOCTYPE svg PUBLIC "-//W3C//DTD SVG 20010904//EN"
 "http://www.w3.org/TR/2001/REC-SVG-20010904/DTD/svg10.dtd">
<svg version="1.0" xmlns="http://www.w3.org/2000/svg"
 width="300.000000pt" height="292.000000pt" viewBox="0 0 300.000000 292.000000"
 preserveAspectRatio="xMidYMid meet">
<metadata>
Created by potrace 1.10, written by Peter Selinger 2001-2011
</metadata>
<g transform="translate(0.000000,292.000000) scale(0.100000,-0.100000)"
fill="#000000" stroke="none">
<path d="M2223 2642 c-26 -32 -82 -106 -123 -164 -71 -101 -78 -108 -126 -123
-73 -23 -323 -147 -360 -178 -18 -15 -36 -27 -41 -27 -5 0 -18 -8 -29 -17 -11
-10 -42 -33 -69 -52 -28 -19 -95 -80 -150 -135 -55 -55 -102 -100 -105 -99 -3
0 -23 4 -45 7 -22 3 -60 10 -85 16 -71 15 -76 13 -112 -37 -53 -75 -168 -261
-168 -272 0 -6 -4 -11 -9 -11 -5 0 -33 -59 -61 -130 -37 -96 -52 -146 -53
-188 -3 -72 12 -76 90 -24 61 40 126 73 182 90 l33 11 -4 -82 c-4 -51 -12 -95
-23 -116 -10 -19 -19 -55 -21 -80 -1 -29 -16 -73 -38 -118 -20 -40 -36 -74
-36 -77 0 -2 -22 -51 -50 -109 -27 -58 -50 -110 -50 -116 0 -6 -4 -19 -9 -29
-20 -39 -32 -73 -71 -190 -22 -67 -40 -129 -40 -137 0 -8 -4 -15 -8 -15 -11 0
-36 -155 -28 -175 7 -19 40 -19 56 0 7 9 15 13 18 10 16 -16 496 445 551 530
14 22 30 45 36 51 5 6 28 32 50 58 22 25 45 46 52 46 18 0 81 58 88 81 4 10
15 19 26 19 10 0 19 5 19 12 0 6 3 8 6 5 7 -6 55 23 83 51 8 8 17 10 23 4 14
-14 21 -171 10 -237 -7 -40 -7 -64 0 -72 11 -13 60 -14 52 -1 -3 4 0 8 5 8 19
0 171 144 171 161 0 5 9 14 20 21 11 7 20 18 20 25 0 7 5 13 11 13 5 0 8 4 5
8 -3 5 4 15 15 22 10 8 19 20 19 27 0 7 5 13 10 13 6 0 10 5 10 10 0 6 11 27
24 48 48 75 111 188 123 219 11 30 10 34 -53 105 -35 40 -64 79 -64 85 0 7 6
30 14 50 52 138 93 306 97 398 5 111 3 353 -4 420 l-7 80 95 154 c69 112 94
162 93 183 -1 15 -6 28 -10 28 -4 0 -29 -26 -55 -58z m-48 -140 c-77 -123
-110 -169 -121 -165 -8 3 -14 9 -12 13 6 15 233 329 235 326 2 -2 -44 -80
-102 -174z m-122 -174 c11 -9 20 -38 26 -83 16 -110 23 -296 14 -343 l-8 -44
-25 20 c-14 10 -31 17 -39 14 -8 -3 -11 0 -7 6 8 13 -24 31 -43 24 -8 -3 -11
0 -7 7 5 7 1 9 -10 4 -13 -5 -15 -3 -9 7 5 8 4 11 -3 6 -5 -3 -12 -2 -14 3 -3
8 -238 151 -306 187 -23 12 -22 13 45 52 78 45 134 71 253 118 95 37 109 39
133 22z m-144 -389 c90 -54 168 -100 172 -101 5 -2 3 -41 -5 -88 -59 -359
-227 -628 -510 -815 l-89 -59 -29 17 c-17 9 -35 14 -40 10 -6 -3 -8 -1 -4 5 3
6 -17 24 -49 42 -44 25 -58 29 -74 20 -26 -14 -71 -72 -71 -93 0 -9 28 -31 68
-53 37 -21 69 -39 71 -41 3 -2 -13 -22 -35 -46 -22 -23 -59 -67 -83 -99 -87
-116 -319 -343 -544 -533 l-59 -49 7 40 c31 183 143 496 289 806 20 42 36 82
36 88 0 5 4 10 9 10 7 0 110 -55 158 -85 2 -1 -26 -64 -61 -141 -35 -76 -62
-141 -60 -143 2 -2 14 9 27 25 14 16 57 67 96 113 65 77 87 112 61 96 -20 -12
-9 8 76 137 85 129 136 225 149 283 4 16 4 27 0 24 -3 -4 -32 -1 -63 6 -31 8
-59 12 -61 9 -2 -2 10 -7 27 -10 33 -7 43 -30 18 -40 -18 -7 -100 -124 -87
-124 6 0 17 12 25 28 33 64 143 159 121 105 -4 -10 -8 -23 -9 -29 -1 -6 -10
-23 -19 -37 -10 -15 -14 -27 -11 -27 4 0 0 -8 -9 -18 -10 -10 -14 -22 -10 -25
3 -4 1 -7 -5 -7 -7 0 -12 -7 -12 -15 0 -8 -5 -15 -10 -15 -6 0 -16 -12 -23
-27 -6 -16 -17 -32 -24 -36 -8 -5 -11 -12 -8 -16 2 -5 -5 -19 -18 -33 -12 -13
-28 -35 -35 -48 -7 -14 -23 -40 -36 -58 l-24 -33 2 31 c1 18 6 35 12 38 19 14
40 68 36 94 -3 22 -19 36 -93 79 -50 28 -93 58 -96 66 -3 8 -2 49 3 90 l10 74
-36 -6 c-46 -8 -161 -63 -229 -109 -29 -20 -54 -36 -56 -36 -4 0 14 92 31 150
24 87 116 264 206 400 45 69 85 128 88 132 3 4 51 -3 107 -16 l101 -23 76 83
c42 46 121 117 176 158 l100 75 82 -51 c46 -28 157 -95 247 -149z m96 -37 c-3
-3 -11 0 -18 7 -9 10 -8 11 6 5 10 -3 15 -9 12 -12z m72 -639 l35 -42 -46 -84
c-128 -236 -277 -422 -400 -503 l-30 -19 7 25 c16 58 19 190 7 255 -11 57 -11
69 1 76 8 4 26 18 40 31 14 13 39 35 55 49 38 34 81 83 124 139 19 25 37 47
41 50 12 12 59 111 59 127 1 18 26 -6 107 -104z m-990 -185 c48 -29 90 -53 92
-55 4 -2 -32 -74 -44 -91 -2 -2 -43 21 -92 50 -79 46 -89 56 -82 73 5 11 13
32 19 48 5 15 12 27 14 27 2 0 44 -23 93 -52z m227 -130 c-5 -8 -1 -9 10 -5
10 4 15 3 11 -3 -3 -5 3 -14 14 -19 29 -16 38 -13 15 5 -18 14 -18 15 4 4 12
-6 20 -15 17 -20 -3 -5 9 -17 27 -26 18 -9 35 -18 37 -20 2 -2 -12 -21 -31
-42 l-35 -39 -59 35 c-33 19 -69 41 -81 49 l-23 13 28 40 c20 29 32 38 46 33
13 -4 16 -2 11 7 -5 9 -4 11 4 6 6 -4 8 -12 5 -18z"/>
<path d="M1808 2227 c-16 -6 -28 -14 -28 -19 0 -4 -4 -8 -10 -8 -12 0 -101
-62 -96 -68 5 -4 166 97 166 104 0 2 -1 4 -2 3 -2 -1 -15 -6 -30 -12z"/>
<path d="M1869 2213 c-13 -16 -12 -17 4 -4 9 7 17 15 17 17 0 8 -8 3 -21 -13z"/>
<path d="M1790 2150 c-30 -27 -51 -49 -47 -50 5 0 14 6 21 13 7 6 30 27 50 45
21 18 36 35 34 37 -2 2 -28 -18 -58 -45z"/>
<path d="M1997 2026 c-10 -38 -15 -71 -12 -74 3 -3 5 1 6 9 1 8 4 3 8 -11 7
-21 9 -16 15 30 4 31 6 69 4 85 -2 24 -7 17 -21 -39z"/>
<path d="M2044 2053 c-7 -16 -15 -49 -18 -75 -4 -38 -3 -48 9 -48 9 0 15 10
15 25 0 31 1 35 10 60 3 11 4 30 1 43 -6 22 -6 22 -17 -5z"/>
<path d="M1580 2069 c-213 -173 -329 -306 -409 -467 -28 -57 -66 -180 -58
-188 2 -2 11 24 21 58 54 194 214 401 456 590 19 15 31 28 25 28 -5 -1 -21
-10 -35 -21z"/>
<path d="M1584 1958 c-163 -168 -271 -310 -340 -454 -37 -77 -39 -84 -24 -84
6 0 10 9 10 20 0 11 5 20 11 20 5 0 7 5 4 10 -3 6 -1 10 5 10 6 0 9 4 6 9 -8
12 97 184 163 266 76 95 123 147 206 227 38 38 65 68 60 68 -6 0 -51 -42 -101
-92z"/>
<path d="M1577 1867 c-167 -102 -98 -340 100 -341 42 0 61 6 95 29 60 43 83
87 83 161 0 52 -4 65 -29 95 -67 81 -170 104 -249 56z m192 -27 c37 -26 71
-90 71 -135 0 -37 -36 -102 -71 -127 -89 -67 -229 -18 -258 89 -20 72 13 148
77 183 51 28 136 23 181 -10z"/>
<path d="M1603 1834 c-18 -9 -40 -28 -50 -43 -18 -27 -35 -131 -22 -131 8 0
24 -40 21 -52 -1 -5 1 -7 6 -6 4 1 22 -6 41 -16 25 -13 49 -17 88 -14 174 15
169 261 -6 275 -29 2 -57 -2 -78 -13z m128 -43 c38 -34 44 -45 44 -80 0 -31
-7 -47 -30 -71 -16 -16 -37 -30 -47 -30 -10 0 -18 -4 -18 -10 0 -29 -90 10
-114 50 -28 48 -21 94 20 140 49 54 86 55 145 1z m29 -171 c-6 -11 -16 -20
-22 -20 -6 0 -3 9 7 20 10 11 20 20 22 20 2 0 -1 -9 -7 -20z"/>
<path d="M1660 1755 c-6 -37 3 -158 10 -130 3 11 3 52 0 90 -3 47 -7 60 -10
40z"/>
<path d="M1947 1856 c-4 -10 -7 -25 -6 -34 0 -11 4 -9 10 7 5 13 8 29 6 35 -2
5 -6 2 -10 -8z"/>
<path d="M2010 1778 c-14 -78 -27 -119 -39 -128 -4 -3 -19 -39 -34 -81 -16
-42 -55 -122 -87 -179 -33 -57 -58 -105 -56 -107 5 -6 67 89 99 152 15 28 26
45 27 40 0 -6 -20 -51 -45 -100 -24 -49 -42 -91 -40 -94 3 -2 5 1 5 8 0 7 5 9
11 6 7 -5 5 -13 -6 -25 -10 -11 -15 -25 -12 -32 4 -9 6 -8 6 3 1 9 8 22 16 29
10 9 12 17 6 23 -12 12 -3 37 12 33 7 -1 9 -1 5 1 -11 7 4 36 34 67 24 23 28
34 22 59 -5 23 -3 28 7 22 8 -5 11 -5 7 -1 -9 11 12 67 22 61 5 -3 7 4 5 15
-5 24 4 52 14 46 4 -3 7 5 7 17 0 33 15 100 25 113 10 12 15 111 7 119 -3 3
-11 -28 -18 -67z m-94 -370 c-9 -12 -16 -19 -16 -15 0 11 24 47 28 42 2 -2 -3
-14 -12 -27z"/>
<path d="M1926 1785 c-3 -9 -6 -22 -5 -28 0 -7 5 -1 10 12 5 13 8 26 5 28 -2
2 -6 -3 -10 -12z"/>
<path d="M1891 1679 c-6 -18 -9 -34 -7 -36 2 -2 9 10 15 28 6 18 9 34 7 36 -2
2 -9 -10 -15 -28z"/>
<path d="M1936 1655 c-9 -13 -16 -29 -16 -35 0 -12 -71 -159 -120 -250 -36
-67 -39 -101 -4 -45 39 61 133 253 146 299 7 23 17 44 23 48 7 5 6 8 -1 8 -7
0 -19 -11 -28 -25z"/>
<path d="M1863 1610 c-3 -13 -28 -68 -54 -122 -27 -54 -46 -98 -43 -98 10 0
116 231 110 238 -4 3 -10 -5 -13 -18z"/>
<path d="M1102 1365 c0 -16 2 -22 5 -12 2 9 2 23 0 30 -3 6 -5 -1 -5 -18z"/>
<path d="M1191 1364 c0 -11 3 -14 6 -6 3 7 2 16 -1 19 -3 4 -6 -2 -5 -13z"/>
<path d="M1726 1335 c-13 -25 -21 -43 -15 -40 10 7 52 85 45 85 -2 0 -16 -20
-30 -45z"/>
<path d="M1890 1359 c0 -5 5 -7 10 -4 6 3 10 8 10 11 0 2 -4 4 -10 4 -5 0 -10
-5 -10 -11z"/>
<path d="M1181 1324 c0 -11 3 -14 6 -6 3 7 2 16 -1 19 -3 4 -6 -2 -5 -13z"/>
<path d="M1780 1180 c-9 -6 -10 -10 -3 -10 6 0 15 5 18 10 8 12 4 12 -15 0z"/>
<path d="M1382 1127 c-11 -23 -33 -61 -47 -84 -14 -24 -24 -43 -21 -43 7 0 68
97 84 134 20 45 8 40 -16 -7z"/>
<path d="M971 921 c-11 -7 -7 -13 18 -25 31 -16 37 -12 25 18 -5 14 -9 14 -22
4 -12 -10 -14 -10 -8 0 8 14 6 15 -13 3z"/>
<path d="M1023 848 c0 -7 14 -14 30 -14 28 -1 29 0 12 12 -23 17 -42 18 -42 2z"/>
<path d="M1160 777 c0 -13 26 -32 66 -47 37 -14 29 4 -16 34 -45 30 -50 31
-50 13z"/>
<path d="M1296 894 c-9 -24 -2 -26 12 -4 7 11 8 20 3 20 -5 0 -12 -7 -15 -16z"/>
<path d="M1322 889 c-7 -11 -11 -23 -9 -25 7 -7 29 24 25 36 -2 6 -9 1 -16
-11z"/>
</g>
</svg>
